# xmcd CD database file
#
# Track frame offsets:
#	150
#	19337
#	35845
#	53412
#	80372
#	99505
#	122772
#	146147
#	174332
#	194045
#	212405
#	234310
#	254170
#
# Disc length: 3762 seconds
#
# Revision: 2
# Processed by: cddbd v1.5PL3 Copyright (c) Steve Scherf et al.
# Submitted via: CDex 1.51
#
DISCID=b70eb00d
DTITLE=Doug MacLeod - Whose Truth, Whose Lies?
DYEAR=2000
DGENRE=Blues
TTITLE0=Whose Truth, Whose Lies?
TTITLE1=Plaquemine
TTITLE2='Splain It To Me
TTITLE3=Norfolk County Line
TTITLE4=My Black Pony
TTITLE5=Saint Louis On My Mind
TTITLE6=Can't Give Me Notin' (I Ain't Already Had Before)
TTITLE7=Unlonely
TTITLE8=Rise Up
TTITLE9=Sweet Ride
TTITLE10=Goin' Down Country
TTITLE11=You Won't Find Me
TTITLE12=Time For A Change
EXTD=AudioQuest AQ-CD1054 YEAR: 2000
EXTT0=
EXTT1=
EXTT2=
EXTT3=
EXTT4=
EXTT5=
EXTT6=
EXTT7=
EXTT8=
EXTT9=
EXTT10=
EXTT11=
EXTT12=
PLAYORDER=
